<?xml version="1.0" encoding="utf-8" standalone="no"?>
<!DOCTYPE svg PUBLIC "-//W3C//DTD SVG 1.1//EN"
  "http://www.w3.org/Graphics/SVG/1.1/DTD/svg11.dtd">
<svg xmlns:xlink="http://www.w3.org/1999/xlink" width="391.073437pt" height="387.384922pt" viewBox="0 0 391.073437 387.384922" xmlns="http://www.w3.org/2000/svg" version="1.1">
 <metadata>
  <rdf:RDF xmlns:dc="http://purl.org/dc/elements/1.1/" xmlns:cc="http://creativecommons.org/ns#" xmlns:rdf="http://www.w3.org/1999/02/22-rdf-syntax-ns#">
   <cc:Work>
    <dc:type rdf:resource="http://purl.org/dc/dcmitype/StillImage"/>
    <dc:date>2025-12-19T11:58:34.554051</dc:date>
    <dc:format>image/svg+xml</dc:format>
    <dc:creator>
     <cc:Agent>
      <dc:title>Matplotlib v3.9.0, https://matplotlib.org/</dc:title>
     </cc:Agent>
    </dc:creator>
   </cc:Work>
  </rdf:RDF>
 </metadata>
 <defs>
  <style type="text/css">*{stroke-linejoin: round; stroke-linecap: butt}</style>
 </defs>
 <g id="figure_1">
  <g id="patch_1">
   <path d="M 0 387.384922 
L 391.073437 387.384922 
L 391.073437 0 
L 0 0 
z
" style="fill: #ffffff"/>
  </g>
  <g id="axes_1">
   <g id="patch_2">
    <path d="M 49.073438 344.492578 
L 383.873438 344.492578 
L 383.873438 11.852578 
L 49.073438 11.852578 
z
" style="fill: #ffffff"/>
   </g>
   <g id="matplotlib.axis_1">
    <g id="xtick_1">
     <g id="line2d_1">
      <defs>
       <path id="mc292797ca1" d="M 0 0 
L 0 3.5 
" style="stroke: #262626; stroke-width: 2"/>
      </defs>
      <g>
       <use xlink:href="#mc292797ca1" x="90.923438" y="344.492578" style="fill: #262626; stroke: #262626; stroke-width: 2"/>
      </g>
     </g>
     <g id="text_1">
      <text style="fill: #262626; font: 13px 'Arial', 'DejaVu Sans', 'Liberation Sans', 'Bitstream Vera Sans', sans-serif; text-anchor: middle" x="90.923438" y="360.797734" transform="rotate(-0 90.923438 360.797734)">Fixed</text>
     </g>
    </g>
    <g id="xtick_2">
     <g id="line2d_2">
      <g>
       <use xlink:href="#mc292797ca1" x="174.623438" y="344.492578" style="fill: #262626; stroke: #262626; stroke-width: 2"/>
      </g>
     </g>
     <g id="text_2">
      <text style="fill: #262626; font: 13px 'Arial', 'DejaVu Sans', 'Liberation Sans', 'Bitstream Vera Sans', sans-serif; text-anchor: middle" x="174.623438" y="360.797734" transform="rotate(-0 174.623438 360.797734)">60</text>
     </g>
    </g>
    <g id="xtick_3">
     <g id="line2d_3">
      <g>
       <use xlink:href="#mc292797ca1" x="258.323438" y="344.492578" style="fill: #262626; stroke: #262626; stroke-width: 2"/>
      </g>
     </g>
     <g id="text_3">
      <text style="fill: #262626; font: 13px 'Arial', 'DejaVu Sans', 'Liberation Sans', 'Bitstream Vera Sans', sans-serif; text-anchor: middle" x="258.323438" y="360.797734" transform="rotate(-0 258.323438 360.797734)">10</text>
     </g>
    </g>
    <g id="xtick_4">
     <g id="line2d_4">
      <g>
       <use xlink:href="#mc292797ca1" x="342.023438" y="344.492578" style="fill: #262626; stroke: #262626; stroke-width: 2"/>
      </g>
     </g>
     <g id="text_4">
      <text style="fill: #262626; font: 13px 'Arial', 'DejaVu Sans', 'Liberation Sans', 'Bitstream Vera Sans', sans-serif; text-anchor: middle" x="342.023438" y="360.797734" transform="rotate(-0 342.023438 360.797734)">1</text>
     </g>
    </g>
    <g id="text_5">
     <text style="fill: #262626; font: 14px 'Arial', 'DejaVu Sans', 'Liberation Sans', 'Bitstream Vera Sans', sans-serif; text-anchor: middle" x="216.473438" y="377.402422" transform="rotate(-0 216.473438 377.402422)">Adaptation Time [s]</text>
    </g>
   </g>
   <g id="matplotlib.axis_2">
    <g id="ytick_1">
     <g id="line2d_5">
      <defs>
       <path id="m5c9a42081b" d="M 0 0 
L -3.5 0 
" style="stroke: #262626; stroke-width: 2"/>
      </defs>
      <g>
       <use xlink:href="#m5c9a42081b" x="49.073438" y="344.492578" style="fill: #262626; stroke: #262626; stroke-width: 2"/>
      </g>
     </g>
     <g id="text_6">
      <text style="fill: #262626; font: 13px 'Arial', 'DejaVu Sans', 'Liberation Sans', 'Bitstream Vera Sans', sans-serif; text-anchor: end" x="42.073438" y="349.145156" transform="rotate(-0 42.073438 349.145156)">0.3</text>
     </g>
    </g>
    <g id="ytick_2">
     <g id="line2d_6">
      <g>
       <use xlink:href="#m5c9a42081b" x="49.073438" y="296.972578" style="fill: #262626; stroke: #262626; stroke-width: 2"/>
      </g>
     </g>
     <g id="text_7">
      <text style="fill: #262626; font: 13px 'Arial', 'DejaVu Sans', 'Liberation Sans', 'Bitstream Vera Sans', sans-serif; text-anchor: end" x="42.073438" y="301.625156" transform="rotate(-0 42.073438 301.625156)">0.4</text>
     </g>
    </g>
    <g id="ytick_3">
     <g id="line2d_7">
      <g>
       <use xlink:href="#m5c9a42081b" x="49.073438" y="249.452578" style="fill: #262626; stroke: #262626; stroke-width: 2"/>
      </g>
     </g>
     <g id="text_8">
      <text style="fill: #262626; font: 13px 'Arial', 'DejaVu Sans', 'Liberation Sans', 'Bitstream Vera Sans', sans-serif; text-anchor: end" x="42.073438" y="254.105156" transform="rotate(-0 42.073438 254.105156)">0.5</text>
     </g>
    </g>
    <g id="ytick_4">
     <g id="line2d_8">
      <g>
       <use xlink:href="#m5c9a42081b" x="49.073438" y="201.932578" style="fill: #262626; stroke: #262626; stroke-width: 2"/>
      </g>
     </g>
     <g id="text_9">
      <text style="fill: #262626; font: 13px 'Arial', 'DejaVu Sans', 'Liberation Sans', 'Bitstream Vera Sans', sans-serif; text-anchor: end" x="42.073438" y="206.585156" transform="rotate(-0 42.073438 206.585156)">0.6</text>
     </g>
    </g>
    <g id="ytick_5">
     <g id="line2d_9">
      <g>
       <use xlink:href="#m5c9a42081b" x="49.073438" y="154.412578" style="fill: #262626; stroke: #262626; stroke-width: 2"/>
      </g>
     </g>
     <g id="text_10">
      <text style="fill: #262626; font: 13px 'Arial', 'DejaVu Sans', 'Liberation Sans', 'Bitstream Vera Sans', sans-serif; text-anchor: end" x="42.073438" y="159.065156" transform="rotate(-0 42.073438 159.065156)">0.7</text>
     </g>
    </g>
    <g id="ytick_6">
     <g id="line2d_10">
      <g>
       <use xlink:href="#m5c9a42081b" x="49.073438" y="106.892578" style="fill: #262626; stroke: #262626; stroke-width: 2"/>
      </g>
     </g>
     <g id="text_11">
      <text style="fill: #262626; font: 13px 'Arial', 'DejaVu Sans', 'Liberation Sans', 'Bitstream Vera Sans', sans-serif; text-anchor: end" x="42.073438" y="111.545156" transform="rotate(-0 42.073438 111.545156)">0.8</text>
     </g>
    </g>
    <g id="ytick_7">
     <g id="line2d_11">
      <g>
       <use xlink:href="#m5c9a42081b" x="49.073438" y="59.372578" style="fill: #262626; stroke: #262626; stroke-width: 2"/>
      </g>
     </g>
     <g id="text_12">
      <text style="fill: #262626; font: 13px 'Arial', 'DejaVu Sans', 'Liberation Sans', 'Bitstream Vera Sans', sans-serif; text-anchor: end" x="42.073438" y="64.025156" transform="rotate(-0 42.073438 64.025156)">0.9</text>
     </g>
    </g>
    <g id="ytick_8">
     <g id="line2d_12">
      <g>
       <use xlink:href="#m5c9a42081b" x="49.073438" y="11.852578" style="fill: #262626; stroke: #262626; stroke-width: 2"/>
      </g>
     </g>
     <g id="text_13">
      <text style="fill: #262626; font: 13px 'Arial', 'DejaVu Sans', 'Liberation Sans', 'Bitstream Vera Sans', sans-serif; text-anchor: end" x="42.073438" y="16.505156" transform="rotate(-0 42.073438 16.505156)">1.0</text>
     </g>
    </g>
    <g id="text_14">
     <text style="fill: #262626; font: 14px 'Arial', 'DejaVu Sans', 'Liberation Sans', 'Bitstream Vera Sans', sans-serif; text-anchor: middle" x="17.220938" y="178.172578" transform="rotate(-90 17.220938 178.172578)">F1 Score</text>
    </g>
   </g>
   <g id="PolyCollection_1">
    <defs>
     <path id="mb4c359daae" d="M 98.201868 -147.97178 
L 83.645007 -147.97178 
L 83.127526 -149.075802 
L 82.57984 -150.179823 
L 81.999447 -151.283845 
L 81.383904 -152.387866 
L 80.730952 -153.491887 
L 80.038659 -154.595909 
L 79.305567 -155.69993 
L 78.530842 -156.803952 
L 77.714423 -157.907973 
L 76.857157 -159.011995 
L 75.960919 -160.116016 
L 75.028704 -161.220037 
L 74.064689 -162.324059 
L 73.074255 -163.42808 
L 72.063973 -164.532102 
L 71.04154 -165.636123 
L 70.01567 -166.740144 
L 68.995942 -167.844166 
L 67.992607 -168.948187 
L 67.016355 -170.052209 
L 66.078056 -171.15623 
L 65.188474 -172.260251 
L 64.357974 -173.364273 
L 63.596228 -174.468294 
L 62.911922 -175.572316 
L 62.312497 -176.676337 
L 61.803909 -177.780359 
L 61.390433 -178.88438 
L 61.074515 -179.988401 
L 60.856678 -181.092423 
L 60.735482 -182.196444 
L 60.707544 -183.300466 
L 60.767613 -184.404487 
L 60.908707 -185.508508 
L 61.122284 -186.61253 
L 61.398474 -187.716551 
L 61.726325 -188.820573 
L 62.094091 -189.924594 
L 62.489522 -191.028615 
L 62.900163 -192.132637 
L 63.313651 -193.236658 
L 63.717995 -194.34068 
L 64.101832 -195.444701 
L 64.454663 -196.548723 
L 64.767052 -197.652744 
L 65.030786 -198.756765 
L 65.239003 -199.860787 
L 65.386285 -200.964808 
L 65.468703 -202.06883 
L 65.483836 -203.172851 
L 65.430759 -204.276872 
L 65.309996 -205.380894 
L 65.123451 -206.484915 
L 64.874322 -207.588937 
L 64.56699 -208.692958 
L 64.206895 -209.79698 
L 63.800409 -210.901001 
L 63.354686 -212.005022 
L 62.877518 -213.109044 
L 62.377182 -214.213065 
L 61.86228 -215.317087 
L 61.341587 -216.421108 
L 60.82389 -217.525129 
L 60.317844 -218.629151 
L 59.831817 -219.733172 
L 59.373755 -220.837194 
L 58.951054 -221.941215 
L 58.570445 -223.045236 
L 58.237895 -224.149258 
L 57.958531 -225.253279 
L 57.736578 -226.357301 
L 57.575331 -227.461322 
L 57.477142 -228.565344 
L 57.443438 -229.669365 
L 57.474762 -230.773386 
L 57.570839 -231.877408 
L 57.73066 -232.981429 
L 57.952582 -234.085451 
L 58.234445 -235.189472 
L 58.573694 -236.293493 
L 58.967498 -237.397515 
L 59.412874 -238.501536 
L 59.906796 -239.605558 
L 60.44629 -240.709579 
L 61.028511 -241.813601 
L 61.650804 -242.917622 
L 62.310727 -244.021643 
L 63.006071 -245.125665 
L 63.734835 -246.229686 
L 64.495197 -247.333708 
L 65.285458 -248.437729 
L 66.103974 -249.54175 
L 66.94908 -250.645772 
L 67.819013 -251.749793 
L 68.711834 -252.853815 
L 69.625358 -253.957836 
L 70.557098 -255.061857 
L 71.504223 -256.165879 
L 72.463539 -257.2699 
L 109.383336 -257.2699 
L 109.383336 -257.2699 
L 110.342652 -256.165879 
L 111.289777 -255.061857 
L 112.221517 -253.957836 
L 113.135041 -252.853815 
L 114.027862 -251.749793 
L 114.897795 -250.645772 
L 115.742901 -249.54175 
L 116.561417 -248.437729 
L 117.351678 -247.333708 
L 118.11204 -246.229686 
L 118.840804 -245.125665 
L 119.536148 -244.021643 
L 120.196071 -242.917622 
L 120.818364 -241.813601 
L 121.400585 -240.709579 
L 121.940079 -239.605558 
L 122.434001 -238.501536 
L 122.879377 -237.397515 
L 123.273181 -236.293493 
L 123.61243 -235.189472 
L 123.894293 -234.085451 
L 124.116215 -232.981429 
L 124.276036 -231.877408 
L 124.372113 -230.773386 
L 124.403438 -229.669365 
L 124.369733 -228.565344 
L 124.271544 -227.461322 
L 124.110297 -226.357301 
L 123.888344 -225.253279 
L 123.60898 -224.149258 
L 123.27643 -223.045236 
L 122.895821 -221.941215 
L 122.47312 -220.837194 
L 122.015058 -219.733172 
L 121.529031 -218.629151 
L 121.022985 -217.525129 
L 120.505288 -216.421108 
L 119.984595 -215.317087 
L 119.469693 -214.213065 
L 118.969357 -213.109044 
L 118.492189 -212.005022 
L 118.046466 -210.901001 
L 117.63998 -209.79698 
L 117.279885 -208.692958 
L 116.972553 -207.588937 
L 116.723424 -206.484915 
L 116.536879 -205.380894 
L 116.416116 -204.276872 
L 116.363039 -203.172851 
L 116.378172 -202.06883 
L 116.46059 -200.964808 
L 116.607872 -199.860787 
L 116.816089 -198.756765 
L 117.079823 -197.652744 
L 117.392212 -196.548723 
L 117.745043 -195.444701 
L 118.12888 -194.34068 
L 118.533224 -193.236658 
L 118.946712 -192.132637 
L 119.357353 -191.028615 
L 119.752784 -189.924594 
L 120.12055 -188.820573 
L 120.448401 -187.716551 
L 120.724591 -186.61253 
L 120.938168 -185.508508 
L 121.079262 -184.404487 
L 121.139331 -183.300466 
L 121.111393 -182.196444 
L 120.990197 -181.092423 
L 120.77236 -179.988401 
L 120.456442 -178.88438 
L 120.042966 -177.780359 
L 119.534378 -176.676337 
L 118.934953 -175.572316 
L 118.250647 -174.468294 
L 117.488901 -173.364273 
L 116.658401 -172.260251 
L 115.768819 -171.15623 
L 114.83052 -170.052209 
L 113.854268 -168.948187 
L 112.850933 -167.844166 
L 111.831205 -166.740144 
L 110.805335 -165.636123 
L 109.782902 -164.532102 
L 108.77262 -163.42808 
L 107.782186 -162.324059 
L 106.818171 -161.220037 
L 105.885956 -160.116016 
L 104.989718 -159.011995 
L 104.132452 -157.907973 
L 103.316033 -156.803952 
L 102.541308 -155.69993 
L 101.808216 -154.595909 
L 101.115923 -153.491887 
L 100.462971 -152.387866 
L 99.847428 -151.283845 
L 99.267035 -150.179823 
L 98.719349 -149.075802 
L 98.201868 -147.97178 
z
" style="stroke: #373737; stroke-width: 1.25"/>
    </defs>
    <g clip-path="url(#pd90298010a)">
     <use xlink:href="#mb4c359daae" x="0" y="387.384922" style="fill: #4a4c7e; stroke: #373737; stroke-width: 1.25"/>
    </g>
   </g>
   <g id="PolyCollection_2">
    <defs>
     <path id="m3ff326890f" d="M 180.709649 -134.488865 
L 168.537226 -134.488865 
L 168.085577 -135.93134 
L 167.604978 -137.373815 
L 167.091295 -138.81629 
L 166.540134 -140.258765 
L 165.947013 -141.70124 
L 165.307573 -143.143715 
L 164.617809 -144.58619 
L 163.874321 -146.028665 
L 163.074565 -147.47114 
L 162.217101 -148.913615 
L 161.301823 -150.35609 
L 160.330149 -151.798564 
L 159.305174 -153.241039 
L 158.231758 -154.683514 
L 157.116557 -156.125989 
L 155.967971 -157.568464 
L 154.796028 -159.010939 
L 153.612177 -160.453414 
L 152.429026 -161.895889 
L 151.259999 -163.338364 
L 150.11895 -164.780839 
L 149.019735 -166.223314 
L 147.975758 -167.665789 
L 146.999517 -169.108263 
L 146.102167 -170.550738 
L 145.293113 -171.993213 
L 144.579667 -173.435688 
L 143.966766 -174.878163 
L 143.456783 -176.320638 
L 143.049431 -177.763113 
L 142.741769 -179.205588 
L 142.528308 -180.648063 
L 142.401224 -182.090538 
L 142.350653 -183.533013 
L 142.36507 -184.975488 
L 142.431735 -186.417962 
L 142.537174 -187.860437 
L 142.667687 -189.302912 
L 142.809859 -190.745387 
L 142.951046 -192.187862 
L 143.079817 -193.630337 
L 143.18634 -195.072812 
L 143.262684 -196.515287 
L 143.30304 -197.957762 
L 143.303836 -199.400237 
L 143.26376 -200.842712 
L 143.18368 -202.285187 
L 143.066479 -203.727661 
L 142.916802 -205.170136 
L 142.740741 -206.612611 
L 142.545476 -208.055086 
L 142.338877 -209.497561 
L 142.129105 -210.940036 
L 141.924223 -212.382511 
L 141.731838 -213.824986 
L 141.558785 -215.267461 
L 141.41088 -216.709936 
L 141.292737 -218.152411 
L 141.20767 -219.594886 
L 141.157665 -221.03736 
L 141.143438 -222.479835 
L 141.164551 -223.92231 
L 141.219603 -225.364785 
L 141.306449 -226.80726 
L 141.422471 -228.249735 
L 141.564846 -229.69221 
L 141.730825 -231.134685 
L 141.917992 -232.57716 
L 142.12449 -234.019635 
L 142.349209 -235.46211 
L 142.591916 -236.904585 
L 142.853327 -238.347059 
L 143.135124 -239.789534 
L 143.439902 -241.232009 
L 143.771059 -242.674484 
L 144.13264 -244.116959 
L 144.529134 -245.559434 
L 144.965237 -247.001909 
L 145.445597 -248.444384 
L 145.974559 -249.886859 
L 146.555906 -251.329334 
L 147.192627 -252.771809 
L 147.886713 -254.214284 
L 148.638994 -255.656758 
L 149.449026 -257.099233 
L 150.315031 -258.541708 
L 151.233885 -259.984183 
L 152.201177 -261.426658 
L 153.211301 -262.869133 
L 154.257605 -264.311608 
L 155.332576 -265.754083 
L 156.428054 -267.196558 
L 157.535457 -268.639033 
L 158.646025 -270.081508 
L 159.751049 -271.523983 
L 160.842096 -272.966457 
L 161.91121 -274.408932 
L 162.95108 -275.851407 
L 163.955184 -277.293882 
L 185.291691 -277.293882 
L 185.291691 -277.293882 
L 186.295795 -275.851407 
L 187.335665 -274.408932 
L 188.404779 -272.966457 
L 189.495826 -271.523983 
L 190.60085 -270.081508 
L 191.711418 -268.639033 
L 192.818821 -267.196558 
L 193.914299 -265.754083 
L 194.98927 -264.311608 
L 196.035574 -262.869133 
L 197.045698 -261.426658 
L 198.01299 -259.984183 
L 198.931844 -258.541708 
L 199.797849 -257.099233 
L 200.607881 -255.656758 
L 201.360162 -254.214284 
L 202.054248 -252.771809 
L 202.690969 -251.329334 
L 203.272316 -249.886859 
L 203.801278 -248.444384 
L 204.281638 -247.001909 
L 204.717741 -245.559434 
L 205.114235 -244.116959 
L 205.475816 -242.674484 
L 205.806973 -241.232009 
L 206.111751 -239.789534 
L 206.393548 -238.347059 
L 206.654959 -236.904585 
L 206.897666 -235.46211 
L 207.122385 -234.019635 
L 207.328883 -232.57716 
L 207.51605 -231.134685 
L 207.682029 -229.69221 
L 207.824404 -228.249735 
L 207.940426 -226.80726 
L 208.027272 -225.364785 
L 208.082324 -223.92231 
L 208.103437 -222.479835 
L 208.08921 -221.03736 
L 208.039205 -219.594886 
L 207.954138 -218.152411 
L 207.835995 -216.709936 
L 207.68809 -215.267461 
L 207.515037 -213.824986 
L 207.322652 -212.382511 
L 207.11777 -210.940036 
L 206.907998 -209.497561 
L 206.701399 -208.055086 
L 206.506134 -206.612611 
L 206.330073 -205.170136 
L 206.180396 -203.727661 
L 206.063195 -202.285187 
L 205.983115 -200.842712 
L 205.943039 -199.400237 
L 205.943835 -197.957762 
L 205.984191 -196.515287 
L 206.060535 -195.072812 
L 206.167058 -193.630337 
L 206.295829 -192.187862 
L 206.437016 -190.745387 
L 206.579188 -189.302912 
L 206.709701 -187.860437 
L 206.81514 -186.417962 
L 206.881805 -184.975488 
L 206.896222 -183.533013 
L 206.845651 -182.090538 
L 206.718567 -180.648063 
L 206.505106 -179.205588 
L 206.197444 -177.763113 
L 205.790092 -176.320638 
L 205.280109 -174.878163 
L 204.667208 -173.435688 
L 203.953762 -171.993213 
L 203.144708 -170.550738 
L 202.247358 -169.108263 
L 201.271117 -167.665789 
L 200.22714 -166.223314 
L 199.127925 -164.780839 
L 197.986876 -163.338364 
L 196.817849 -161.895889 
L 195.634698 -160.453414 
L 194.450847 -159.010939 
L 193.278904 -157.568464 
L 192.130318 -156.125989 
L 191.015117 -154.683514 
L 189.941701 -153.241039 
L 188.916726 -151.798564 
L 187.945052 -150.35609 
L 187.029774 -148.913615 
L 186.17231 -147.47114 
L 185.372554 -146.028665 
L 184.629066 -144.58619 
L 183.939302 -143.143715 
L 183.299862 -141.70124 
L 182.706741 -140.258765 
L 182.15558 -138.81629 
L 181.641897 -137.373815 
L 181.161298 -135.93134 
L 180.709649 -134.488865 
z
" style="stroke: #373737; stroke-width: 1.25"/>
    </defs>
    <g clip-path="url(#pd90298010a)">
     <use xlink:href="#m3ff326890f" x="0" y="387.384922" style="fill: #367182; stroke: #373737; stroke-width: 1.25"/>
    </g>
   </g>
   <g id="PolyCollection_3">
    <defs>
     <path id="m26c655cf77" d="M 265.021254 -149.402689 
L 251.625621 -149.402689 
L 250.937294 -150.632491 
L 250.197497 -151.862294 
L 249.405149 -153.092097 
L 248.559728 -154.321899 
L 247.661374 -155.551702 
L 246.710989 -156.781505 
L 245.710322 -158.011307 
L 244.662048 -159.24111 
L 243.569821 -160.470913 
L 242.438317 -161.700715 
L 241.273241 -162.930518 
L 240.081316 -164.160321 
L 238.870244 -165.390123 
L 237.648632 -166.619926 
L 236.425893 -167.849729 
L 235.212127 -169.079531 
L 234.017959 -170.309334 
L 232.854372 -171.539137 
L 231.73251 -172.768939 
L 230.663465 -173.998742 
L 229.65806 -175.228545 
L 228.726621 -176.458347 
L 227.878749 -177.68815 
L 227.123099 -178.917953 
L 226.467173 -180.147755 
L 225.917128 -181.377558 
L 225.47761 -182.607361 
L 225.151622 -183.837163 
L 224.940415 -185.066966 
L 224.843438 -186.296769 
L 224.858307 -187.526571 
L 224.98084 -188.756374 
L 225.205127 -189.986177 
L 225.523637 -191.215979 
L 225.927383 -192.445782 
L 226.406107 -193.675585 
L 226.948508 -194.905387 
L 227.542484 -196.13519 
L 228.175401 -197.364993 
L 228.83436 -198.594795 
L 229.506469 -199.824598 
L 230.179102 -201.054401 
L 230.840147 -202.284203 
L 231.478228 -203.514006 
L 232.082896 -204.743809 
L 232.644792 -205.973611 
L 233.155778 -207.203414 
L 233.60903 -208.433217 
L 233.999095 -209.663019 
L 234.321928 -210.892822 
L 234.574888 -212.122625 
L 234.756721 -213.352427 
L 234.867513 -214.58223 
L 234.908636 -215.812033 
L 234.882679 -217.041835 
L 234.793364 -218.271638 
L 234.645465 -219.501441 
L 234.44471 -220.731243 
L 234.197693 -221.961046 
L 233.911768 -223.190849 
L 233.594946 -224.420652 
L 233.255786 -225.650454 
L 232.903274 -226.880257 
L 232.54671 -228.11006 
L 232.195568 -229.339862 
L 231.85937 -230.569665 
L 231.547538 -231.799468 
L 231.269254 -233.02927 
L 231.03331 -234.259073 
L 230.847968 -235.488876 
L 230.72081 -236.718678 
L 230.658612 -237.948481 
L 230.667218 -239.178284 
L 230.751432 -240.408086 
L 230.914925 -241.637889 
L 231.160172 -242.867692 
L 231.488399 -244.097494 
L 231.899566 -245.327297 
L 232.392372 -246.5571 
L 232.964282 -247.786902 
L 233.611591 -249.016705 
L 234.3295 -250.246508 
L 235.11223 -251.47631 
L 235.953137 -252.706113 
L 236.844866 -253.935916 
L 237.779499 -255.165718 
L 238.748724 -256.395521 
L 239.744005 -257.625324 
L 240.756749 -258.855126 
L 241.778469 -260.084929 
L 242.800943 -261.314732 
L 243.816349 -262.544534 
L 244.817392 -263.774337 
L 245.797407 -265.00414 
L 246.750439 -266.233942 
L 247.671303 -267.463745 
L 248.555616 -268.693548 
L 249.39981 -269.92335 
L 250.201124 -271.153153 
L 266.445751 -271.153153 
L 266.445751 -271.153153 
L 267.247065 -269.92335 
L 268.091259 -268.693548 
L 268.975572 -267.463745 
L 269.896436 -266.233942 
L 270.849468 -265.00414 
L 271.829483 -263.774337 
L 272.830526 -262.544534 
L 273.845932 -261.314732 
L 274.868406 -260.084929 
L 275.890126 -258.855126 
L 276.90287 -257.625324 
L 277.898151 -256.395521 
L 278.867376 -255.165718 
L 279.802009 -253.935916 
L 280.693738 -252.706113 
L 281.534645 -251.47631 
L 282.317375 -250.246508 
L 283.035284 -249.016705 
L 283.682593 -247.786902 
L 284.254503 -246.5571 
L 284.747309 -245.327297 
L 285.158476 -244.097494 
L 285.486703 -242.867692 
L 285.73195 -241.637889 
L 285.895443 -240.408086 
L 285.979657 -239.178284 
L 285.988263 -237.948481 
L 285.926065 -236.718678 
L 285.798907 -235.488876 
L 285.613565 -234.259073 
L 285.377621 -233.02927 
L 285.099337 -231.799468 
L 284.787505 -230.569665 
L 284.451307 -229.339862 
L 284.100165 -228.11006 
L 283.743601 -226.880257 
L 283.391089 -225.650454 
L 283.051929 -224.420652 
L 282.735107 -223.190849 
L 282.449182 -221.961046 
L 282.202165 -220.731243 
L 282.00141 -219.501441 
L 281.853511 -218.271638 
L 281.764196 -217.041835 
L 281.738239 -215.812033 
L 281.779362 -214.58223 
L 281.890154 -213.352427 
L 282.071987 -212.122625 
L 282.324947 -210.892822 
L 282.64778 -209.663019 
L 283.037845 -208.433217 
L 283.491097 -207.203414 
L 284.002083 -205.973611 
L 284.563979 -204.743809 
L 285.168647 -203.514006 
L 285.806728 -202.284203 
L 286.467773 -201.054401 
L 287.140406 -199.824598 
L 287.812515 -198.594795 
L 288.471474 -197.364993 
L 289.104391 -196.13519 
L 289.698367 -194.905387 
L 290.240768 -193.675585 
L 290.719492 -192.445782 
L 291.123238 -191.215979 
L 291.441748 -189.986177 
L 291.666035 -188.756374 
L 291.788568 -187.526571 
L 291.803437 -186.296769 
L 291.70646 -185.066966 
L 291.495253 -183.837163 
L 291.169265 -182.607361 
L 290.729747 -181.377558 
L 290.179702 -180.147755 
L 289.523776 -178.917953 
L 288.768126 -177.68815 
L 287.920254 -176.458347 
L 286.988815 -175.228545 
L 285.98341 -173.998742 
L 284.914365 -172.768939 
L 283.792503 -171.539137 
L 282.628916 -170.309334 
L 281.434748 -169.079531 
L 280.220982 -167.849729 
L 278.998243 -166.619926 
L 277.776631 -165.390123 
L 276.565559 -164.160321 
L 275.373634 -162.930518 
L 274.208558 -161.700715 
L 273.077054 -160.470913 
L 271.984827 -159.24111 
L 270.936553 -158.011307 
L 269.935886 -156.781505 
L 268.985501 -155.551702 
L 268.087147 -154.321899 
L 267.241726 -153.092097 
L 266.449378 -151.862294 
L 265.709581 -150.632491 
L 265.021254 -149.402689 
z
" style="stroke: #373737; stroke-width: 1.25"/>
    </defs>
    <g clip-path="url(#pd90298010a)">
     <use xlink:href="#m26c655cf77" x="0" y="387.384922" style="fill: #33977c; stroke: #373737; stroke-width: 1.25"/>
    </g>
   </g>
   <g id="PolyCollection_4">
    <defs>
     <path id="mae62853263" d="M 352.262309 -120.623734 
L 331.784566 -120.623734 
L 331.195738 -122.183425 
L 330.605738 -123.743116 
L 330.015643 -125.302807 
L 329.426202 -126.862498 
L 328.837839 -128.422189 
L 328.250662 -129.981879 
L 327.664498 -131.54157 
L 327.078934 -133.101261 
L 326.493383 -134.660952 
L 325.907144 -136.220643 
L 325.319487 -137.780334 
L 324.729733 -139.340024 
L 324.137332 -140.899715 
L 323.541947 -142.459406 
L 322.943521 -144.019097 
L 322.342338 -145.578788 
L 321.739069 -147.138479 
L 321.134802 -148.698169 
L 320.531048 -150.25786 
L 319.929735 -151.817551 
L 319.333178 -153.377242 
L 318.744027 -154.936933 
L 318.165204 -156.496624 
L 317.599822 -158.056314 
L 317.051085 -159.616005 
L 316.522195 -161.175696 
L 316.016239 -162.735387 
L 315.536081 -164.295078 
L 315.084267 -165.854769 
L 314.662922 -167.414459 
L 314.273672 -168.97415 
L 313.917578 -170.533841 
L 313.595084 -172.093532 
L 313.305993 -173.653223 
L 313.049457 -175.212914 
L 312.823999 -176.772605 
L 312.627544 -178.332295 
L 312.457486 -179.891986 
L 312.310758 -181.451677 
L 312.183933 -183.011368 
L 312.073324 -184.571059 
L 311.975106 -186.13075 
L 311.885425 -187.69044 
L 311.800528 -189.250131 
L 311.716867 -190.809822 
L 311.631213 -192.369513 
L 311.540741 -193.929204 
L 311.443111 -195.488895 
L 311.336526 -197.048585 
L 311.219763 -198.608276 
L 311.092197 -200.167967 
L 310.953787 -201.727658 
L 310.805055 -203.287349 
L 310.647037 -204.84704 
L 310.481223 -206.40673 
L 310.309485 -207.966421 
L 310.133989 -209.526112 
L 309.95711 -211.085803 
L 309.781343 -212.645494 
L 309.609217 -214.205185 
L 309.443214 -215.764875 
L 309.285705 -217.324566 
L 309.138895 -218.884257 
L 309.004782 -220.443948 
L 308.885136 -222.003639 
L 308.781495 -223.56333 
L 308.695174 -225.12302 
L 308.627291 -226.682711 
L 308.578811 -228.242402 
L 308.55059 -229.802093 
L 308.543437 -231.361784 
L 308.558174 -232.921475 
L 308.595693 -234.481165 
L 308.657018 -236.040856 
L 308.743352 -237.600547 
L 308.856114 -239.160238 
L 308.996967 -240.719929 
L 309.167825 -242.27962 
L 309.370843 -243.83931 
L 309.608393 -245.399001 
L 309.883018 -246.958692 
L 310.197369 -248.518383 
L 310.554126 -250.078074 
L 310.955913 -251.637765 
L 311.405188 -253.197455 
L 311.904149 -254.757146 
L 312.454613 -256.316837 
L 313.057923 -257.876528 
L 313.714841 -259.436219 
L 314.425465 -260.99591 
L 315.189161 -262.5556 
L 316.004504 -264.115291 
L 316.869258 -265.674982 
L 317.780359 -267.234673 
L 318.733942 -268.794364 
L 319.72538 -270.354055 
L 320.74935 -271.913745 
L 321.799926 -273.473436 
L 322.870681 -275.033127 
L 361.176194 -275.033127 
L 361.176194 -275.033127 
L 362.246949 -273.473436 
L 363.297525 -271.913745 
L 364.321495 -270.354055 
L 365.312933 -268.794364 
L 366.266516 -267.234673 
L 367.177617 -265.674982 
L 368.042371 -264.115291 
L 368.857714 -262.5556 
L 369.62141 -260.99591 
L 370.332034 -259.436219 
L 370.988952 -257.876528 
L 371.592262 -256.316837 
L 372.142726 -254.757146 
L 372.641687 -253.197455 
L 373.090962 -251.637765 
L 373.492749 -250.078074 
L 373.849506 -248.518383 
L 374.163857 -246.958692 
L 374.438482 -245.399001 
L 374.676032 -243.83931 
L 374.87905 -242.27962 
L 375.049908 -240.719929 
L 375.190761 -239.160238 
L 375.303523 -237.600547 
L 375.389857 -236.040856 
L 375.451182 -234.481165 
L 375.488701 -232.921475 
L 375.503438 -231.361784 
L 375.496285 -229.802093 
L 375.468064 -228.242402 
L 375.419584 -226.682711 
L 375.351701 -225.12302 
L 375.26538 -223.56333 
L 375.161739 -222.003639 
L 375.042093 -220.443948 
L 374.90798 -218.884257 
L 374.76117 -217.324566 
L 374.603661 -215.764875 
L 374.437658 -214.205185 
L 374.265532 -212.645494 
L 374.089765 -211.085803 
L 373.912886 -209.526112 
L 373.73739 -207.966421 
L 373.565652 -206.40673 
L 373.399838 -204.84704 
L 373.24182 -203.287349 
L 373.093088 -201.727658 
L 372.954678 -200.167967 
L 372.827112 -198.608276 
L 372.710349 -197.048585 
L 372.603764 -195.488895 
L 372.506134 -193.929204 
L 372.415662 -192.369513 
L 372.330008 -190.809822 
L 372.246347 -189.250131 
L 372.16145 -187.69044 
L 372.071769 -186.13075 
L 371.973551 -184.571059 
L 371.862942 -183.011368 
L 371.736117 -181.451677 
L 371.589389 -179.891986 
L 371.419331 -178.332295 
L 371.222876 -176.772605 
L 370.997418 -175.212914 
L 370.740882 -173.653223 
L 370.451791 -172.093532 
L 370.129297 -170.533841 
L 369.773203 -168.97415 
L 369.383953 -167.414459 
L 368.962608 -165.854769 
L 368.510794 -164.295078 
L 368.030636 -162.735387 
L 367.52468 -161.175696 
L 366.99579 -159.616005 
L 366.447053 -158.056314 
L 365.881671 -156.496624 
L 365.302848 -154.936933 
L 364.713697 -153.377242 
L 364.11714 -151.817551 
L 363.515827 -150.25786 
L 362.912073 -148.698169 
L 362.307806 -147.138479 
L 361.704537 -145.578788 
L 361.103354 -144.019097 
L 360.504928 -142.459406 
L 359.909543 -140.899715 
L 359.317142 -139.340024 
L 358.727388 -137.780334 
L 358.139731 -136.220643 
L 357.553492 -134.660952 
L 356.967941 -133.101261 
L 356.382377 -131.54157 
L 355.796213 -129.981879 
L 355.209036 -128.422189 
L 354.620673 -126.862498 
L 354.031232 -125.302807 
L 353.441137 -123.743116 
L 352.851137 -122.183425 
L 352.262309 -120.623734 
z
" style="stroke: #373737; stroke-width: 1.25"/>
    </defs>
    <g clip-path="url(#pd90298010a)">
     <use xlink:href="#mae62853263" x="0" y="387.384922" style="fill: #80c161; stroke: #373737; stroke-width: 1.25"/>
    </g>
   </g>
   <g id="line2d_13">
    <path d="M 60.93599 206.694459 
L 120.910885 206.694459 
" clip-path="url(#pd90298010a)" style="fill: none; stroke-dasharray: 1.5625,0.9375; stroke-dashoffset: 0; stroke: #373737; stroke-width: 1.25"/>
   </g>
   <g id="line2d_14">
    <path d="M 62.120743 172.622016 
L 119.726132 172.622016 
" clip-path="url(#pd90298010a)" style="fill: none; stroke-dasharray: 3.125,1.25; stroke-dashoffset: 0; stroke: #373737; stroke-width: 1.25"/>
   </g>
   <g id="line2d_15">
    <path d="M 57.667499 154.839799 
L 124.179376 154.839799 
" clip-path="url(#pd90298010a)" style="fill: none; stroke-dasharray: 1.5625,0.9375; stroke-dashoffset: 0; stroke: #373737; stroke-width: 1.25"/>
   </g>
   <g id="line2d_16">
    <path d="M 143.010202 209.437884 
L 206.236673 209.437884 
" clip-path="url(#pd90298010a)" style="fill: none; stroke-dasharray: 1.5625,0.9375; stroke-dashoffset: 0; stroke: #373737; stroke-width: 1.25"/>
   </g>
   <g id="line2d_17">
    <path d="M 141.831097 174.304164 
L 207.415778 174.304164 
" clip-path="url(#pd90298010a)" style="fill: none; stroke-dasharray: 3.125,1.25; stroke-dashoffset: 0; stroke: #373737; stroke-width: 1.25"/>
   </g>
   <g id="line2d_18">
    <path d="M 142.949567 148.545223 
L 206.297308 148.545223 
" clip-path="url(#pd90298010a)" style="fill: none; stroke-dasharray: 1.5625,0.9375; stroke-dashoffset: 0; stroke: #373737; stroke-width: 1.25"/>
   </g>
   <g id="line2d_19">
    <path d="M 224.979181 202.543677 
L 291.667694 202.543677 
" clip-path="url(#pd90298010a)" style="fill: none; stroke-dasharray: 1.5625,0.9375; stroke-dashoffset: 0; stroke: #373737; stroke-width: 1.25"/>
   </g>
   <g id="line2d_20">
    <path d="M 231.85524 183.104131 
L 284.791635 183.104131 
" clip-path="url(#pd90298010a)" style="fill: none; stroke-dasharray: 3.125,1.25; stroke-dashoffset: 0; stroke: #373737; stroke-width: 1.25"/>
   </g>
   <g id="line2d_21">
    <path d="M 230.665431 148.462102 
L 285.981444 148.462102 
" clip-path="url(#pd90298010a)" style="fill: none; stroke-dasharray: 1.5625,0.9375; stroke-dashoffset: 0; stroke: #373737; stroke-width: 1.25"/>
   </g>
   <g id="line2d_22">
    <path d="M 313.010465 211.902268 
L 371.03641 211.902268 
" clip-path="url(#pd90298010a)" style="fill: none; stroke-dasharray: 1.5625,0.9375; stroke-dashoffset: 0; stroke: #373737; stroke-width: 1.25"/>
   </g>
   <g id="line2d_23">
    <path d="M 309.887403 175.680562 
L 374.159472 175.680562 
" clip-path="url(#pd90298010a)" style="fill: none; stroke-dasharray: 3.125,1.25; stroke-dashoffset: 0; stroke: #373737; stroke-width: 1.25"/>
   </g>
   <g id="line2d_24">
    <path d="M 309.205777 144.813729 
L 374.841098 144.813729 
" clip-path="url(#pd90298010a)" style="fill: none; stroke-dasharray: 1.5625,0.9375; stroke-dashoffset: 0; stroke: #373737; stroke-width: 1.25"/>
   </g>
   <g id="patch_3">
    <path d="M 49.073438 344.492578 
L 49.073438 11.852578 
" style="fill: none; stroke: #000000; stroke-width: 2; stroke-linejoin: miter; stroke-linecap: square"/>
   </g>
   <g id="patch_4">
    <path d="M 49.073438 344.492578 
L 383.873438 344.492578 
" style="fill: none; stroke: #000000; stroke-width: 2; stroke-linejoin: miter; stroke-linecap: square"/>
   </g>
   <g id="PathCollection_1">
    <defs>
     <path id="m0e77e4f874" d="M 0 2.5 
C 0.663008 2.5 1.29895 2.236584 1.767767 1.767767 
C 2.236584 1.29895 2.5 0.663008 2.5 0 
C 2.5 -0.663008 2.236584 -1.29895 1.767767 -1.767767 
C 1.29895 -2.236584 0.663008 -2.5 0 -2.5 
C -0.663008 -2.5 -1.29895 -2.236584 -1.767767 -1.767767 
C -2.236584 -1.29895 -2.5 -0.663008 -2.5 0 
C -2.5 0.663008 -2.236584 1.29895 -1.767767 1.767767 
C -1.29895 2.236584 -0.663008 2.5 0 2.5 
z
"/>
    </defs>
    <g clip-path="url(#pd90298010a)">
     <use xlink:href="#m0e77e4f874" x="99.1951" y="159.665432" style="fill-opacity: 0.3"/>
     <use xlink:href="#m0e77e4f874" x="82.836822" y="227.147272" style="fill-opacity: 0.3"/>
     <use xlink:href="#m0e77e4f874" x="85.055727" y="210.572578" style="fill-opacity: 0.3"/>
     <use xlink:href="#m0e77e4f874" x="89.751833" y="176.717884" style="fill-opacity: 0.3"/>
     <use xlink:href="#m0e77e4f874" x="94.048907" y="212.492578" style="fill-opacity: 0.3"/>
     <use xlink:href="#m0e77e4f874" x="88.998639" y="152.18659" style="fill-opacity: 0.3"/>
     <use xlink:href="#m0e77e4f874" x="83.801156" y="147.624007" style="fill-opacity: 0.3"/>
     <use xlink:href="#m0e77e4f874" x="89.735769" y="207.23938" style="fill-opacity: 0.3"/>
     <use xlink:href="#m0e77e4f874" x="82.957006" y="136.460578" style="fill-opacity: 0.3"/>
     <use xlink:href="#m0e77e4f874" x="88.602926" y="157.502114" style="fill-opacity: 0.3"/>
     <use xlink:href="#m0e77e4f874" x="93.650504" y="199.19104" style="fill-opacity: 0.3"/>
     <use xlink:href="#m0e77e4f874" x="93.776077" y="177.62002" style="fill-opacity: 0.3"/>
     <use xlink:href="#m0e77e4f874" x="97.274193" y="162.709721" style="fill-opacity: 0.3"/>
     <use xlink:href="#m0e77e4f874" x="83.780965" y="239.413142" style="fill-opacity: 0.3"/>
     <use xlink:href="#m0e77e4f874" x="93.011216" y="131.98741" style="fill-opacity: 0.3"/>
     <use xlink:href="#m0e77e4f874" x="87.115942" y="196.258548" style="fill-opacity: 0.3"/>
     <use xlink:href="#m0e77e4f874" x="95.933176" y="158.62689" style="fill-opacity: 0.3"/>
     <use xlink:href="#m0e77e4f874" x="89.591579" y="195.23962" style="fill-opacity: 0.3"/>
     <use xlink:href="#m0e77e4f874" x="91.648409" y="147.480485" style="fill-opacity: 0.3"/>
     <use xlink:href="#m0e77e4f874" x="90.40011" y="209.852578" style="fill-opacity: 0.3"/>
     <use xlink:href="#m0e77e4f874" x="89.753134" y="203.599947" style="fill-opacity: 0.3"/>
     <use xlink:href="#m0e77e4f874" x="90.428022" y="165.864766" style="fill-opacity: 0.3"/>
     <use xlink:href="#m0e77e4f874" x="99.082994" y="212.439513" style="fill-opacity: 0.3"/>
     <use xlink:href="#m0e77e4f874" x="85.063975" y="167.791996" style="fill-opacity: 0.3"/>
     <use xlink:href="#m0e77e4f874" x="94.330028" y="158.214178" style="fill-opacity: 0.3"/>
     <use xlink:href="#m0e77e4f874" x="93.230236" y="168.526148" style="fill-opacity: 0.3"/>
     <use xlink:href="#m0e77e4f874" x="90.361119" y="204.565928" style="fill-opacity: 0.3"/>
     <use xlink:href="#m0e77e4f874" x="83.979151" y="207.768368" style="fill-opacity: 0.3"/>
     <use xlink:href="#m0e77e4f874" x="92.298754" y="210.410325" style="fill-opacity: 0.3"/>
     <use xlink:href="#m0e77e4f874" x="90.425093" y="199.820578" style="fill-opacity: 0.3"/>
     <use xlink:href="#m0e77e4f874" x="90.858489" y="152.988273" style="fill-opacity: 0.3"/>
     <use xlink:href="#m0e77e4f874" x="91.793728" y="160.46725" style="fill-opacity: 0.3"/>
     <use xlink:href="#m0e77e4f874" x="97.46371" y="236.947315" style="fill-opacity: 0.3"/>
     <use xlink:href="#m0e77e4f874" x="89.539379" y="167.940169" style="fill-opacity: 0.3"/>
     <use xlink:href="#m0e77e4f874" x="94.321713" y="155.852578" style="fill-opacity: 0.3"/>
     <use xlink:href="#m0e77e4f874" x="91.155058" y="155.456974" style="fill-opacity: 0.3"/>
     <use xlink:href="#m0e77e4f874" x="98.675866" y="135.749608" style="fill-opacity: 0.3"/>
     <use xlink:href="#m0e77e4f874" x="95.659967" y="181.041433" style="fill-opacity: 0.3"/>
     <use xlink:href="#m0e77e4f874" x="95.860511" y="140.835435" style="fill-opacity: 0.3"/>
     <use xlink:href="#m0e77e4f874" x="90.377981" y="208.192698" style="fill-opacity: 0.3"/>
     <use xlink:href="#m0e77e4f874" x="89.870369" y="140.009141" style="fill-opacity: 0.3"/>
     <use xlink:href="#m0e77e4f874" x="87.66842" y="180.183613" style="fill-opacity: 0.3"/>
     <use xlink:href="#m0e77e4f874" x="95.565074" y="206.512819" style="fill-opacity: 0.3"/>
     <use xlink:href="#m0e77e4f874" x="84.208854" y="132.236578" style="fill-opacity: 0.3"/>
     <use xlink:href="#m0e77e4f874" x="93.351124" y="130.277815" style="fill-opacity: 0.3"/>
     <use xlink:href="#m0e77e4f874" x="97.621086" y="184.522848" style="fill-opacity: 0.3"/>
     <use xlink:href="#m0e77e4f874" x="90.740486" y="211.936789" style="fill-opacity: 0.3"/>
     <use xlink:href="#m0e77e4f874" x="85.501022" y="130.115022" style="fill-opacity: 0.3"/>
    </g>
   </g>
   <g id="PathCollection_2">
    <g clip-path="url(#pd90298010a)">
     <use xlink:href="#m0e77e4f874" x="173.219593" y="212.750139" style="fill-opacity: 0.3"/>
     <use xlink:href="#m0e77e4f874" x="170.433473" y="159.583148" style="fill-opacity: 0.3"/>
     <use xlink:href="#m0e77e4f874" x="175.157164" y="174.444639" style="fill-opacity: 0.3"/>
     <use xlink:href="#m0e77e4f874" x="168.893546" y="222.357841" style="fill-opacity: 0.3"/>
     <use xlink:href="#m0e77e4f874" x="167.25177" y="136.693256" style="fill-opacity: 0.3"/>
     <use xlink:href="#m0e77e4f874" x="182.442302" y="146.651432" style="fill-opacity: 0.3"/>
     <use xlink:href="#m0e77e4f874" x="176.556335" y="219.212578" style="fill-opacity: 0.3"/>
     <use xlink:href="#m0e77e4f874" x="179.953204" y="209.171497" style="fill-opacity: 0.3"/>
     <use xlink:href="#m0e77e4f874" x="174.617332" y="163.322578" style="fill-opacity: 0.3"/>
     <use xlink:href="#m0e77e4f874" x="180.225606" y="137.796453" style="fill-opacity: 0.3"/>
     <use xlink:href="#m0e77e4f874" x="181.997741" y="181.756489" style="fill-opacity: 0.3"/>
     <use xlink:href="#m0e77e4f874" x="181.811415" y="205.811762" style="fill-opacity: 0.3"/>
     <use xlink:href="#m0e77e4f874" x="177.584627" y="174.163689" style="fill-opacity: 0.3"/>
     <use xlink:href="#m0e77e4f874" x="167.055037" y="125.517131" style="fill-opacity: 0.3"/>
     <use xlink:href="#m0e77e4f874" x="182.620907" y="193.546696" style="fill-opacity: 0.3"/>
     <use xlink:href="#m0e77e4f874" x="166.641372" y="252.896056" style="fill-opacity: 0.3"/>
     <use xlink:href="#m0e77e4f874" x="175.80579" y="134.586353" style="fill-opacity: 0.3"/>
     <use xlink:href="#m0e77e4f874" x="169.786882" y="195.596578" style="fill-opacity: 0.3"/>
     <use xlink:href="#m0e77e4f874" x="168.608254" y="210.237044" style="fill-opacity: 0.3"/>
     <use xlink:href="#m0e77e4f874" x="167.053631" y="166.435711" style="fill-opacity: 0.3"/>
     <use xlink:href="#m0e77e4f874" x="166.877647" y="149.176487" style="fill-opacity: 0.3"/>
     <use xlink:href="#m0e77e4f874" x="167.309377" y="164.883087" style="fill-opacity: 0.3"/>
     <use xlink:href="#m0e77e4f874" x="166.625337" y="230.30945" style="fill-opacity: 0.3"/>
     <use xlink:href="#m0e77e4f874" x="166.36632" y="200.687513" style="fill-opacity: 0.3"/>
     <use xlink:href="#m0e77e4f874" x="170.605965" y="215.509721" style="fill-opacity: 0.3"/>
     <use xlink:href="#m0e77e4f874" x="172.869125" y="149.877474" style="fill-opacity: 0.3"/>
     <use xlink:href="#m0e77e4f874" x="171.178171" y="210.572578" style="fill-opacity: 0.3"/>
     <use xlink:href="#m0e77e4f874" x="174.233484" y="168.567472" style="fill-opacity: 0.3"/>
     <use xlink:href="#m0e77e4f874" x="171.509164" y="149.563599" style="fill-opacity: 0.3"/>
     <use xlink:href="#m0e77e4f874" x="174.017229" y="197.024409" style="fill-opacity: 0.3"/>
     <use xlink:href="#m0e77e4f874" x="180.161084" y="210.325132" style="fill-opacity: 0.3"/>
     <use xlink:href="#m0e77e4f874" x="172.000395" y="160.033223" style="fill-opacity: 0.3"/>
     <use xlink:href="#m0e77e4f874" x="166.416841" y="173.622791" style="fill-opacity: 0.3"/>
     <use xlink:href="#m0e77e4f874" x="170.187993" y="170.252578" style="fill-opacity: 0.3"/>
     <use xlink:href="#m0e77e4f874" x="166.320657" y="124.995435" style="fill-opacity: 0.3"/>
     <use xlink:href="#m0e77e4f874" x="181.147633" y="247.79104" style="fill-opacity: 0.3"/>
     <use xlink:href="#m0e77e4f874" x="174.365903" y="127.441767" style="fill-opacity: 0.3"/>
     <use xlink:href="#m0e77e4f874" x="180.91343" y="207.523166" style="fill-opacity: 0.3"/>
     <use xlink:href="#m0e77e4f874" x="175.868084" y="134.228498" style="fill-opacity: 0.3"/>
     <use xlink:href="#m0e77e4f874" x="174.707484" y="174.857229" style="fill-opacity: 0.3"/>
     <use xlink:href="#m0e77e4f874" x="182.01946" y="128.896913" style="fill-opacity: 0.3"/>
     <use xlink:href="#m0e77e4f874" x="170.637116" y="175.859658" style="fill-opacity: 0.3"/>
     <use xlink:href="#m0e77e4f874" x="166.45563" y="129.855263" style="fill-opacity: 0.3"/>
     <use xlink:href="#m0e77e4f874" x="167.232847" y="211.492815" style="fill-opacity: 0.3"/>
     <use xlink:href="#m0e77e4f874" x="167.410038" y="218.353102" style="fill-opacity: 0.3"/>
     <use xlink:href="#m0e77e4f874" x="175.98354" y="146.115435" style="fill-opacity: 0.3"/>
     <use xlink:href="#m0e77e4f874" x="182.022814" y="186.781274" style="fill-opacity: 0.3"/>
     <use xlink:href="#m0e77e4f874" x="173.141812" y="110.09104" style="fill-opacity: 0.3"/>
    </g>
   </g>
   <g id="PathCollection_3">
    <g clip-path="url(#pd90298010a)">
     <use xlink:href="#m0e77e4f874" x="250.736336" y="171.88137" style="fill-opacity: 0.3"/>
     <use xlink:href="#m0e77e4f874" x="263.990225" y="210.299531" style="fill-opacity: 0.3"/>
     <use xlink:href="#m0e77e4f874" x="264.741399" y="169.647998" style="fill-opacity: 0.3"/>
     <use xlink:href="#m0e77e4f874" x="251.240172" y="217.185911" style="fill-opacity: 0.3"/>
     <use xlink:href="#m0e77e4f874" x="263.011856" y="200.568368" style="fill-opacity: 0.3"/>
     <use xlink:href="#m0e77e4f874" x="256.747847" y="197.590649" style="fill-opacity: 0.3"/>
     <use xlink:href="#m0e77e4f874" x="256.998821" y="143.630729" style="fill-opacity: 0.3"/>
     <use xlink:href="#m0e77e4f874" x="251.987792" y="144.795435" style="fill-opacity: 0.3"/>
     <use xlink:href="#m0e77e4f874" x="262.448101" y="154.109903" style="fill-opacity: 0.3"/>
     <use xlink:href="#m0e77e4f874" x="262.125548" y="187.611482" style="fill-opacity: 0.3"/>
     <use xlink:href="#m0e77e4f874" x="256.058039" y="133.615843" style="fill-opacity: 0.3"/>
     <use xlink:href="#m0e77e4f874" x="258.232433" y="192.428578" style="fill-opacity: 0.3"/>
     <use xlink:href="#m0e77e4f874" x="254.455957" y="225.533115" style="fill-opacity: 0.3"/>
     <use xlink:href="#m0e77e4f874" x="253.679311" y="199.47767" style="fill-opacity: 0.3"/>
     <use xlink:href="#m0e77e4f874" x="252.695628" y="116.231769" style="fill-opacity: 0.3"/>
     <use xlink:href="#m0e77e4f874" x="253.403558" y="187.55678" style="fill-opacity: 0.3"/>
     <use xlink:href="#m0e77e4f874" x="266.300584" y="206.458292" style="fill-opacity: 0.3"/>
     <use xlink:href="#m0e77e4f874" x="259.134971" y="158.62689" style="fill-opacity: 0.3"/>
     <use xlink:href="#m0e77e4f874" x="253.482591" y="133.80656" style="fill-opacity: 0.3"/>
     <use xlink:href="#m0e77e4f874" x="263.151238" y="187.469969" style="fill-opacity: 0.3"/>
     <use xlink:href="#m0e77e4f874" x="265.741541" y="204.308578" style="fill-opacity: 0.3"/>
     <use xlink:href="#m0e77e4f874" x="264.000052" y="155.882269" style="fill-opacity: 0.3"/>
     <use xlink:href="#m0e77e4f874" x="260.773829" y="170.252578" style="fill-opacity: 0.3"/>
     <use xlink:href="#m0e77e4f874" x="259.409581" y="208.268578" style="fill-opacity: 0.3"/>
     <use xlink:href="#m0e77e4f874" x="257.50443" y="161.20115" style="fill-opacity: 0.3"/>
     <use xlink:href="#m0e77e4f874" x="255.880805" y="214.911609" style="fill-opacity: 0.3"/>
     <use xlink:href="#m0e77e4f874" x="259.531646" y="151.27076" style="fill-opacity: 0.3"/>
     <use xlink:href="#m0e77e4f874" x="256.140198" y="197.180578" style="fill-opacity: 0.3"/>
     <use xlink:href="#m0e77e4f874" x="256.057946" y="157.759057" style="fill-opacity: 0.3"/>
     <use xlink:href="#m0e77e4f874" x="252.479972" y="203.676431" style="fill-opacity: 0.3"/>
     <use xlink:href="#m0e77e4f874" x="263.595008" y="148.741467" style="fill-opacity: 0.3"/>
     <use xlink:href="#m0e77e4f874" x="259.906189" y="202.166092" style="fill-opacity: 0.3"/>
     <use xlink:href="#m0e77e4f874" x="253.009732" y="141.212578" style="fill-opacity: 0.3"/>
     <use xlink:href="#m0e77e4f874" x="254.150871" y="194.329378" style="fill-opacity: 0.3"/>
     <use xlink:href="#m0e77e4f874" x="252.965199" y="237.982233" style="fill-opacity: 0.3"/>
     <use xlink:href="#m0e77e4f874" x="259.951612" y="199.47767" style="fill-opacity: 0.3"/>
     <use xlink:href="#m0e77e4f874" x="254.133466" y="133.028578" style="fill-opacity: 0.3"/>
     <use xlink:href="#m0e77e4f874" x="261.294191" y="218.461274" style="fill-opacity: 0.3"/>
     <use xlink:href="#m0e77e4f874" x="264.784762" y="178.738292" style="fill-opacity: 0.3"/>
     <use xlink:href="#m0e77e4f874" x="253.174108" y="145.552917" style="fill-opacity: 0.3"/>
     <use xlink:href="#m0e77e4f874" x="253.563243" y="175.023662" style="fill-opacity: 0.3"/>
     <use xlink:href="#m0e77e4f874" x="255.582825" y="214.74696" style="fill-opacity: 0.3"/>
     <use xlink:href="#m0e77e4f874" x="253.416842" y="133.637503" style="fill-opacity: 0.3"/>
     <use xlink:href="#m0e77e4f874" x="264.387028" y="143.221861" style="fill-opacity: 0.3"/>
     <use xlink:href="#m0e77e4f874" x="262.283581" y="130.364927" style="fill-opacity: 0.3"/>
     <use xlink:href="#m0e77e4f874" x="249.98336" y="195.889572" style="fill-opacity: 0.3"/>
     <use xlink:href="#m0e77e4f874" x="262.408214" y="211.800119" style="fill-opacity: 0.3"/>
     <use xlink:href="#m0e77e4f874" x="256.205773" y="147.624007" style="fill-opacity: 0.3"/>
    </g>
   </g>
   <g id="PathCollection_4">
    <g clip-path="url(#pd90298010a)">
     <use xlink:href="#m0e77e4f874" x="346.706166" y="171.906886" style="fill-opacity: 0.3"/>
     <use xlink:href="#m0e77e4f874" x="340.245669" y="247.386491" style="fill-opacity: 0.3"/>
     <use xlink:href="#m0e77e4f874" x="347.808878" y="152.577042" style="fill-opacity: 0.3"/>
     <use xlink:href="#m0e77e4f874" x="336.019554" y="224.659535" style="fill-opacity: 0.3"/>
     <use xlink:href="#m0e77e4f874" x="349.233288" y="117.581673" style="fill-opacity: 0.3"/>
     <use xlink:href="#m0e77e4f874" x="335.271744" y="204.109067" style="fill-opacity: 0.3"/>
     <use xlink:href="#m0e77e4f874" x="345.995166" y="210.48115" style="fill-opacity: 0.3"/>
     <use xlink:href="#m0e77e4f874" x="341.679451" y="148.437009" style="fill-opacity: 0.3"/>
     <use xlink:href="#m0e77e4f874" x="334.130997" y="150.85666" style="fill-opacity: 0.3"/>
     <use xlink:href="#m0e77e4f874" x="339.690044" y="223.052578" style="fill-opacity: 0.3"/>
     <use xlink:href="#m0e77e4f874" x="349.250078" y="116.224671" style="fill-opacity: 0.3"/>
     <use xlink:href="#m0e77e4f874" x="339.44815" y="197.68498" style="fill-opacity: 0.3"/>
     <use xlink:href="#m0e77e4f874" x="340.089777" y="145.811035" style="fill-opacity: 0.3"/>
     <use xlink:href="#m0e77e4f874" x="341.805479" y="252.896056" style="fill-opacity: 0.3"/>
     <use xlink:href="#m0e77e4f874" x="338.28592" y="179.454238" style="fill-opacity: 0.3"/>
     <use xlink:href="#m0e77e4f874" x="341.433036" y="179.674139" style="fill-opacity: 0.3"/>
     <use xlink:href="#m0e77e4f874" x="349.177475" y="202.701096" style="fill-opacity: 0.3"/>
     <use xlink:href="#m0e77e4f874" x="337.247645" y="121.697804" style="fill-opacity: 0.3"/>
     <use xlink:href="#m0e77e4f874" x="338.573222" y="226.45903" style="fill-opacity: 0.3"/>
     <use xlink:href="#m0e77e4f874" x="337.41077" y="167.235435" style="fill-opacity: 0.3"/>
     <use xlink:href="#m0e77e4f874" x="348.750904" y="216.165622" style="fill-opacity: 0.3"/>
     <use xlink:href="#m0e77e4f874" x="341.121364" y="160.623399" style="fill-opacity: 0.3"/>
     <use xlink:href="#m0e77e4f874" x="338.152911" y="210.051573" style="fill-opacity: 0.3"/>
     <use xlink:href="#m0e77e4f874" x="347.749721" y="126.083347" style="fill-opacity: 0.3"/>
     <use xlink:href="#m0e77e4f874" x="349.438645" y="223.57535" style="fill-opacity: 0.3"/>
     <use xlink:href="#m0e77e4f874" x="334.492181" y="167.473631" style="fill-opacity: 0.3"/>
     <use xlink:href="#m0e77e4f874" x="348.440428" y="127.863846" style="fill-opacity: 0.3"/>
     <use xlink:href="#m0e77e4f874" x="347.680722" y="210.145911" style="fill-opacity: 0.3"/>
     <use xlink:href="#m0e77e4f874" x="334.651429" y="141.821809" style="fill-opacity: 0.3"/>
     <use xlink:href="#m0e77e4f874" x="345.387431" y="163.23208" style="fill-opacity: 0.3"/>
     <use xlink:href="#m0e77e4f874" x="345.819941" y="204.93871" style="fill-opacity: 0.3"/>
     <use xlink:href="#m0e77e4f874" x="349.624457" y="236.003522" style="fill-opacity: 0.3"/>
     <use xlink:href="#m0e77e4f874" x="339.751403" y="194.097739" style="fill-opacity: 0.3"/>
     <use xlink:href="#m0e77e4f874" x="343.335919" y="132.384357" style="fill-opacity: 0.3"/>
     <use xlink:href="#m0e77e4f874" x="343.635941" y="259.492015" style="fill-opacity: 0.3"/>
     <use xlink:href="#m0e77e4f874" x="344.769983" y="184.304191" style="fill-opacity: 0.3"/>
     <use xlink:href="#m0e77e4f874" x="342.142185" y="136.55045" style="fill-opacity: 0.3"/>
     <use xlink:href="#m0e77e4f874" x="337.462597" y="258.475363" style="fill-opacity: 0.3"/>
     <use xlink:href="#m0e77e4f874" x="348.336069" y="123.511595" style="fill-opacity: 0.3"/>
     <use xlink:href="#m0e77e4f874" x="336.90279" y="171.227347" style="fill-opacity: 0.3"/>
     <use xlink:href="#m0e77e4f874" x="338.526933" y="266.761187" style="fill-opacity: 0.3"/>
     <use xlink:href="#m0e77e4f874" x="345.683363" y="124.125106" style="fill-opacity: 0.3"/>
     <use xlink:href="#m0e77e4f874" x="335.501533" y="138.685318" style="fill-opacity: 0.3"/>
     <use xlink:href="#m0e77e4f874" x="338.239006" y="170.252578" style="fill-opacity: 0.3"/>
     <use xlink:href="#m0e77e4f874" x="338.772577" y="183.491981" style="fill-opacity: 0.3"/>
     <use xlink:href="#m0e77e4f874" x="346.975332" y="154.744886" style="fill-opacity: 0.3"/>
     <use xlink:href="#m0e77e4f874" x="334.874462" y="229.885519" style="fill-opacity: 0.3"/>
     <use xlink:href="#m0e77e4f874" x="341.430388" y="112.351795" style="fill-opacity: 0.3"/>
    </g>
   </g>
  </g>
 </g>
 <defs>
  <clipPath id="pd90298010a">
   <rect x="49.073438" y="11.852578" width="334.8" height="332.64"/>
  </clipPath>
 </defs>
</svg>
